<?xml version="1.0" encoding="utf-8"?>
<!-- Generator: Adobe Illustrator 23.0.3, SVG Export Plug-In . SVG Version: 6.00 Build 0)  -->
<svg version="1.1" id="Layer_1" xmlns="http://www.w3.org/2000/svg" xmlns:xlink="http://www.w3.org/1999/xlink" x="0px" y="0px"
	 viewBox="0 0 32 32" style="enable-background:new 0 0 32 32;" xml:space="preserve">
<style type="text/css">
	.st0{fill:#3481E1;}
	.st1{fill:#14397F;}
	.st2{fill:#81C5FA;}
	.st3{fill:#FFFFFF;}
	.st4{fill-rule:evenodd;clip-rule:evenodd;}
	.st5{fill-rule:evenodd;clip-rule:evenodd;fill:#4781D9;}
	.st6{fill-rule:evenodd;clip-rule:evenodd;fill:url(#SVGID_1_);}
	.st7{fill:none;stroke:#000000;stroke-opacity:9.700000e-02;}
</style>
<path class="st0" d="M23.1,17.3c-0.6,3.3-3.5,5.9-7.1,5.9c-4,0-7.2-3.2-7.2-7.2s3.2-7.2,7.2-7.2c3.3,0,6.1,2.2,6.9,5.2h8
	C30,6.7,23.7,1,16,1C7.7,1,1,7.7,1,16c0,8.3,6.7,15,15,15c7.9,0,14.3-6,15-13.7H23.1z"/>
<path class="st1" d="M23.1,17.3c-0.6,3.3-3.5,5.9-7.1,5.9c-4,0-7.2-3.2-7.2-7.2s3.2-7.2,7.2-7.2c3.3,0,6.1,2.2,6.9,5.2h4.7
	C26.7,8.5,21.9,4.3,16,4.3C9.5,4.3,4.3,9.5,4.3,16S9.5,27.8,16,27.8c6.1,0,11-4.6,11.7-10.5H23.1z"/>
<path class="st2" d="M23.1,17.3c-0.6,3.3-3.5,5.9-7.1,5.9c-4,0-7.2-3.2-7.2-7.2s3.2-7.2,7.2-7.2c3.3,0,6.1,2.2,6.9,5.2h2.7
	c-0.9-4.5-4.9-7.8-9.6-7.8c-5.4,0-9.8,4.4-9.8,9.8c0,5.4,4.4,9.8,9.8,9.8c5,0,9.1-3.7,9.7-8.5H23.1z"/>
</svg>
